<?xml version="1.0" encoding="utf-8"?>
<!-- Generator: Adobe Illustrator 17.1.0, SVG Export Plug-In . SVG Version: 6.00 Build 0)  -->
<!DOCTYPE svg PUBLIC "-//W3C//DTD SVG 1.1//EN" "http://www.w3.org/Graphics/SVG/1.1/DTD/svg11.dtd">
<svg version="1.1" id="Layer_1" xmlns="http://www.w3.org/2000/svg" xmlns:xlink="http://www.w3.org/1999/xlink" x="0px" y="0px"
	 viewBox="0 0 612 792" enable-background="new 0 0 612 792" xml:space="preserve">
<rect x="31.3" y="81.8" transform="matrix(0.9978 -6.604389e-02 6.604389e-02 0.9978 -13.4654 10.8122)" width="251" height="254.6"/>
<rect x="34.4" y="80.4" transform="matrix(0.9978 -6.604389e-02 6.604389e-02 0.9978 -13.368 11.0157)" fill="#00AEEF" width="251" height="254.6"/>
<linearGradient id="SVGID_1_" gradientUnits="userSpaceOnUse" x1="148.6028" y1="90.3659" x2="148.6028" y2="344.9651" gradientTransform="matrix(0.9978 -6.604388e-02 6.604394e-02 0.9978 -8.0063 4.9385)">
	<stop  offset="1.522843e-02" style="stop-color:#EC008C"/>
	<stop  offset="1" style="stop-color:#EF5BA1"/>
</linearGradient>
<polygon fill="url(#SVGID_1_)" points="288.3,331 37.8,347.6 21,93.6 271.5,77 "/>
<linearGradient id="SVGID_2_" gradientUnits="userSpaceOnUse" x1="157.1516" y1="88.0285" x2="157.1516" y2="342.6277" gradientTransform="matrix(0.9994 -3.441355e-02 3.441364e-02 0.9994 -4.201 2.5221)">
	<stop  offset="5.076142e-03" style="stop-color:#FFF685"/>
	<stop  offset="1" style="stop-color:#FFF56D"/>
</linearGradient>
<polygon fill="url(#SVGID_2_)" points="290.1,335.2 39.2,343.9 30.5,89.4 281.3,80.8 "/>
<g>
	<path d="M108.7,154.2l-5.6,3l-2,1.2l-3.4,1.5l-3.3,1l-6.2,0.2l-0.9-0.3l-1.3-0.2l-2.6-1.4l-2.4-2.4l-1.6-2.7l-0.7-2.8l-0.4-2
		l-0.1-4.3l0.9-6.1l0.4-2.3l1.5-4L83,129l2.3-3.5l1.3-1.8l1.5-1.4l2.3-1.4l0.4-0.5l1.7-0.7l0.2-0.1l2.3,0.4l0.8,1.3l-0.2,1l-0.9,0.7
		l-1.9,0.8l-1.5,0.5l-2.2,1.5l-3.2,3.9l-2.7,5.8l-1.6,6.9l0.5,8.4l1.3,3.2l1.8,2.1l3.1,2l1.8,0.4l3.6-0.1l4-1.1l2.6-1.4l2.8-0.8
		l4.1-1.5l0.9-0.5l0.7,0L108.7,154.2z"/>
	<path d="M121.7,138.9l-0.5,0.9l-1.3,1l-1.7,0.3l-1.7,1.4l-0.3,1.3l-1.3,1.5l-0.6,1.8l-0.4,2.1l-1.4,3.9l-1.2,3.9l-0.8,3.1l-0.6,1.3
		l-1.1,0.3l-0.9,0.9l-1.2-0.2l-1.1-0.9l0-9.5l0.2-2.1l-0.2-5.2l-0.6-1.7l0-1.2l-0.5-1.5l0-0.6l1.1-0.8l0.5,0l1.3,1l0.8,1.8l0.4,2.7
		l0.3,1.4l0.2,5.9l0.2,0.2l0.9-1.8l0.3-1.7l1.1-2.2l0.4-0.3l0-1.9l0.7-1.8l1.6-2.6l1.5-1.4l1.8-0.9l3.6,0l-0.1,0.2l0.6,0.3
		L121.7,138.9z"/>
	<path d="M147.7,159l-2.3,1.7l-2.9,1.1l-1.1,0.8l-5.4,0.2l-2.8-0.8l-2.8-1.9l-4.2-4.2l-2.8-6.3l-1.5-7.9l0.3-1.9l0.2-2.1l1.5-2.8
		l1.7-1.5l3.4-1.6l1-0.3l3.5-0.1l0.5,0.4l1.1,0l0.7,0.5l0.3,0l2.5,2.8l0.7,1.7l0.2,1.3l0.4,1.7l0.2,6.2l-0.7,1.7l-0.9,0.4l-2.5-0.2
		l-3.4,0.1l-3.1-0.5l-1.4,0l-1.4-0.2l-0.2,0l0.1,1.6l1.5,4.3l0.9,1.6l2.5,2.4l0,0.3l1.9,1.2l0.7,0.9l3.2,1.1l4.1-0.5l2-0.8l1.1-0.5
		l1.9-0.3l0.6-0.3l0.6,0.1L147.7,159z M137.1,141.7l-0.7-3.6l-0.9-1.7l-1.9-1.3l-2.3-0.1l-1.9,0.6l-1.9,1.7l-1.4,2.2l0,3.5l0.3,0
		l0.9,0.1l4.3,0.5l4,0.3l1-0.5L137.1,141.7z"/>
	<path d="M169.7,157l-0.5,1.4l-1.4,0.9l-1.4,0l-1.3-1.1l0.5-3.8l0-0.5l-0.9,0l-1.3,0.9l-0.9,0.1L161,156l-2.9,1.4l-2.5,0.4l-1.2,0.3
		l-4.9,0.1l-1.2-0.7l-2.1-0.5l-2.1-2.4l-0.6-1.3l0.1-2.5l0.8-1.9l0.9-0.9l0-0.4l1.5-1.9l4.2-4.5l2.9-2.6l1.8-1l4.7-1.4l4.2,0.2
		l0.3-0.5l-1.7-4.8l-1-1.4l-1.5-1.9l-2.3-1.5l-2.5,0.1l-1.8,1.1l-2.2,2.8l-0.5,1.4l0,1.1l-1,1.1l-0.6-0.3l-1.2-1.4l-0.1-1.8l0.6-1.9
		l1.2-1.8l0.7-1l3.2-2.4l1.9-0.7l3.1,0.3l2.3,1.3l1.8,1.6l1.8,2.6l1.5,2.5l1.4,4.7l0.9,7.7l0.3,8.8l0.5,4L169.7,157z M165.6,150.3
		l-0.3-0.7l0.2-2.6l-0.7-5.6l-0.4-0.7l-1.4-1.3l-2.9-0.3l-0.8,0.4l-3.5,1.3l-2.5,1.9l-4.2,4.5l-1.3,2.2l-0.4,1.7l0.1,1.4l0.8,1.2
		l1.9,1.1l4.3,0l2.2-0.3l2.7-1l4.9-1.7l1-1L165.6,150.3z"/>
	<path d="M193,160.3l-0.2,1.3l-0.3,0.9l-2.8,2.7l-3.9,1.7l-3.2-0.1l-2-0.7l-2.7-2.5l-2.4-3.7l-0.7-1.6l-0.5-0.9l-0.4-1.6l-0.5-1.5
		l-0.7-2.5l-0.3-0.6l-0.3-2.7l-0.3-0.4l-0.1-2.2l-0.7-1.2l-0.5-9.5l0-5.2l0.3-3.7l-0.1-4.6l-0.1-2.9l-0.4-0.6l-0.1-2.7l1.6-1.6
		l2.1,0.1l0.5,0.3l0.5,0.9l0,2.4l-0.4,0.5l-0.1,2.1l-0.2,1.5l-0.3,3.9l-0.2,2.1l0,7l0.1,3.1l0.4,3l3.4-0.1l1.3-0.3l2.1-0.3l4.1-0.6
		l1.4,0l4.3,0.2l0.8,0.5l0,1.4l-0.5,0.3l-2.7,0.3l-2.2,0.7l-1.6,0.1l-3.5,0.9l-2.8,0.6l-1.1,0.5l-2,0.5l-0.5,0.5l0.4,4.4l0.5,1.1
		l0.5,1.9l1.7,4.3l2.4,4.1l2.3,2.2l1.9,0.4l4.3-1.5l2-1.6l0.4-1.2l1.1,0l0.5,0.3L193,160.3z"/>
	<path d="M219,156.5l-2.3,1.7l-2.9,1.1l-1.1,0.8l-5.4,0.2l-2.8-0.8l-2.8-1.9l-4.2-4.2l-2.8-6.3l-1.5-7.9l0.3-1.9l0.2-2.1l1.5-2.8
		l1.7-1.5l3.4-1.6l1-0.3l3.5-0.1l0.5,0.4l1.1,0l0.7,0.5l0.3,0l2.5,2.8l0.7,1.7l0.2,1.3l0.4,1.7l0.2,6.2l-0.7,1.7l-0.9,0.4l-2.5-0.2
		l-3.4,0.1l-3.2-0.5l-1.4,0l-1.4-0.2l-0.2,0l0.1,1.6l1.5,4.3l0.9,1.6l2.5,2.4l0,0.3l1.9,1.2l0.7,0.9l3.2,1.1l4.1-0.5l2-0.8l1.1-0.5
		l1.9-0.3l0.6-0.3l0.6,0.1L219,156.5z M208.3,139.2l-0.7-3.6l-0.9-1.7l-1.9-1.3l-2.3-0.1l-1.9,0.6l-1.9,1.7l-1.4,2.2l0,3.5l0.3,0
		l0.9,0.1l4.3,0.5l4,0.3l1-0.5L208.3,139.2z"/>
</g>
<g>
	<path d="M82.4,191l-0.1,1.7l-3,1.9l-3.4,3.2l-1.9,3.9l-0.1,0.9l-0.6,1l-0.4,2.7l0.7,4.8l0.6,0.9l0.4,1.9l3,6.4l1.4,2.6l1.1,3.2
		l0.4,1.1l0.3,3.9l-0.1,1.6l-1.3,2.8l-2.6,3.2l-1.2,0.7l-1.5,1.3l-0.9,0l-0.8-1.2l0-1.4l1.5-2l1.2-0.6l1.8-2.5l0.4-2.3l-0.2-3.1
		l-1.5-4.3l-0.6-0.7l-0.3-1.4l-0.7-0.9l-0.5-1.5l-0.5-0.9l0-0.6l-1.8-3.2l-1.4-6.1l0.3-2.6l0-1.4l0.6-2.5l0.8-2.1l3.9-5.6l3.3-3.2
		l1.6-0.7l0.8-0.2l1,0.2L82.4,191z"/>
	<path d="M102.3,227.6l-0.2,1.1l-0.9,0.7l-1.2-0.2l-0.9-0.5L98,227l-1.6-8.5l-0.2-5.3l-0.6-3.1l-0.8-2.4l-0.2-1.6l-1-1.9l-0.4,0
		l-1.1,1.9l-1.3,3.5l-0.4,0.5l-0.4,1.8l-0.6,1.6l-0.6,2.4l-0.4,0.4l-0.1,1.4l-0.6,0.7l-0.1,1.4l-0.5,1.7l-0.6,1.4l-0.6,0.4l-0.6-0.1
		l-0.3,0l-1.6-2.4l-0.2-1.1l-1.3-43.7l0.7-0.5l1-0.6l0.9,0.4l0.5,0.5l0.3,26.7l0.5,10l0.3,0.2l0.3,0l0.5-1.1l0.5-1.7l0.5-0.7
		l0.4-2.1l2.3-5l0-0.7l0.5-0.7l0-1l0.7-0.9l2.9-0.1l2.4,3.1l0.4,1.3l0.2,1.9l0.4,0.9l0.2,1.6l0.4,0.8l0.3,1.8l0.6,3.4l0.1,2.2l1,7.7
		l0.6,1.9L102.3,227.6z"/>
	<path d="M126.1,206.7l-0.4,4.3l-1,3.2l-1.6,2.1l-0.5,1.1l-1.3,0.8l-1.7,1.8l-3.3,2.6l-4.6,2.4l-2.5,0.4l-1.6-0.2l-2.3-1l-2.9-4
		l-0.5-2.7l-0.3-0.4l0.2-1.7l0.1-4l0.3-0.7l-0.1-1l-0.7-0.5l0.9-3.4l4-4.4l0.6-0.5l4.4-2.1l2.2-0.6l4.9,0.1l4.1,2l2.9,3.3
		L126.1,206.7z M122.4,207.6l-0.5-1l-0.1-1.5l-3.9-3.4l-1.4-0.5l-2.5-0.1l-1.6,0.2l-0.7,0.6l-1.3,0.1l-3.8,2.8l0,0.3l0.2,0.2
		l0.3,1.4l-0.6,1.3l-0.8,2.6l-0.5,4.8l0.7,4.3l1.2,1.7l1.9,0.1l2.1-0.1l5.9-3.5l3.4-3.3l1.7-3.2l0.3-1.4L122.4,207.6z"/>
	<path d="M147.2,210.1l-0.6,1l-0.4,2l-0.5,2.1l-0.8,1.7l-5.7,6l-3.5,2.5l-1.1,0.4l-0.7,0.7l0.4,6.6l0.6,4l1,3.6l0.7,1l-0.2,1.7
		l-0.8,0.5l-1.2-0.4l-1.1-0.9l-0.4-1.7l-1.6-7.6l-0.5-8.1l-0.5-7.3l-0.4-0.4l-0.5-2.7l-0.2-4.4l-0.6-3.4l-0.6-1.9l-0.5-1.5l0.1-1.1
		l0.7-1l-1.6-2l0.1-1.6l1.3-1.1l2-0.4l4.6,0.6l2.5,0.8l2.8,1.5l3.9,3.5l2.2,3.7l0.4,1.4l0.3,0.4L147.2,210.1z M143.4,211.4l-0.1-3.6
		l-1.7-3.2l-2.4-2.6l-3-1.3l-3.9-0.4l-1.3,0.2l0.2,0.1l1.2,0.8l0.4,10.9l0.5,3.9l0.1,1.8l0.7,4.7l0.4,0l1.4-1.1l2-1.7l4.6-5.5
		L143.4,211.4z"/>
	<path d="M168.7,209.3l-0.6,1l-0.4,2l-0.5,2.1l-0.8,1.7l-5.7,6l-3.5,2.5l-1.1,0.4l-0.7,0.7l0.4,6.6l0.6,4l1,3.6l0.7,1l-0.2,1.7
		l-0.8,0.5l-1.2-0.4l-1.1-0.9l-0.4-1.8l-1.6-7.6l-0.5-8.1l-0.5-7.3l-0.4-0.4l-0.5-2.7l-0.2-4.4l-0.6-3.4l-0.6-1.9l-0.5-1.5l0.1-1.1
		l0.7-1l-1.6-2l0.1-1.6l1.3-1.1l2-0.4l4.6,0.6l2.5,0.8l2.8,1.5l3.9,3.5l2.2,3.7l0.4,1.4l0.3,0.4L168.7,209.3z M164.9,210.7l-0.1-3.6
		l-1.7-3.2l-2.4-2.6l-3-1.3l-3.9-0.4l-1.3,0.2l0.2,0.1l1.2,0.8l0.4,10.9l0.5,3.9l0.1,1.8l0.7,4.7l0.4,0l1.4-1.1l2-1.7l4.6-5.5
		L164.9,210.7z"/>
	<path d="M175.4,183.1l-0.1,0.7l-0.8,0.4l-3.9-0.5l-1.4-0.6l-1.1-1.5l0-1l0.6-1.3l0.9-0.5l2.1,0.1l1.4,1l1.1,1.9L175.4,183.1z
		 M178.7,223.1l-0.1,3.3l-1.6,0.1l-0.8-0.9l0-0.5l-0.6-0.5l0-0.8l-0.5-0.7l-0.2-5.8l-0.4-0.6l0.4-0.5l-0.4-6.9l-0.5-4.1l0-0.9
		l-0.5-1.6l0.1-1.4l1-1.1l1.7,0.3l0.9,0.7l0.3,0.3l0.2,5l0.4,0.5l-0.4,0.9l0.3,7.7l0.4,5.1L178.7,223.1z"/>
	<path d="M201.9,218.2l-0.1,1.2l-1.3,1.1l-1.2-0.2l-0.7-0.4l-0.7-1l-0.8-7.1l-0.2-7.2l-1-3.6l-0.2-0.1l-0.7,1l-0.7,1.4l-2,4
		l-2.1,4.4l-4,5.7l-1.6,1.4l-0.6-0.2l-1.7-1.3l-0.5-1.2l0-2.4l1-7.1l0.1-1.9l0.3-0.6l-0.1-3.1l-1-2l0.2-0.9l1.3-1.1l1.6-0.4l0.9,0.7
		l0.5,0.5l0.2,5.9l-0.4,1.8l-0.1,1.6l-0.4,2.6l-0.2,0.2l0,0.5l0.5,0.6l2.1-2.4l2.2-4.7l0.8-2l1-1.7l1.6-2.7l1.3-1.4l1.1-0.3l1.7,0.1
		l0.9,0.9l1.4,6.8l0.3,10l0.8,3.9L201.9,218.2z"/>
	<path d="M242.8,244.3l-0.3,2.7l-0.8,3.1l-0.9,1.5l-4.6,4l-4.9,3.2l-1.4,0.4l-0.7,0.5l-1.6,0.4l-0.5,0.5l-2.2,0.7l-4.3,0.6l-3.8-0.1
		l-6-1.8l-3-2l-2-1.7l-3.1-4.5l-0.8-2.1l-0.4-0.3l-0.3-1.6l-0.6-2.4l-0.1-3.2l0.4-2.3l0.2-1.6l0-0.3l3.6-4.4l3.5-3.3l3.8-2.1
		l2.8-1.1l2.3-0.5l1.4-0.3l-0.3-1.6l-1.3-1.6l0-0.4l-4.1-4.7l-0.6-1.7l0.2-0.9l0-0.2l-0.3-0.3l-3.8-0.5l-3-1l-1.8-1.4l-2.2-2.8
		l-0.9-2.6l-0.1-4l2.2-5.6l0.6-1.2l1.5-1.4l2.9-0.1l0.9,0.5l0.8,1.4l1.3-0.6l1.6-0.7l0.8-1.3l0-0.3l3.5-3.5l0.8-1l0.3,0l3.6-3.6
		l2.5,0l1.1,1.8l-0.3,2l0.1,1.6l-0.9,0.7l-1,0l0-0.1l-0.5-0.6l-1.3,0.6l-1.9,1.3l-1.9,2.8l3.6,3.7l2.2,3.9l0.1,3.2l-1.3,3.2
		l-2.6,2.3l-3.4,2l-0.1,0.2l1.2,1.3l0.8,2l2.3,2.9l2.8,4.7l1.7,3l0.9,0.6l0.3,1.5l-0.2,0.5l0.8,0.5l2.2-0.1l3.7,0.8l2.6,0.9l2.8,2.3
		l2.9,3.3l1.3,2.8l0.4,1.6L242.8,244.3z M220,204.8l-0.4-0.3l0-1.3l-3.2-3.7l-1.9-1.5l-2.2,0.1l-1.9,0.8l-1.2,0.2l-0.5-0.3l0-1.1
		l-0.4-0.4l-0.9,0l-0.3,0.2l-1.4,1.4l-0.1,0.8l-0.9,0.9l-0.4,1.4l-0.4,1.2l0.1,2.8l0.9,2.4l1.4,1.8l0.8,0.6l2.3,0.8l2.9,0.1l0.9-0.4
		l1.3-0.2l2.1-1.2l0-0.2l3-2.5L220,204.8z M239.4,243.1l-1-2.9l-3.2-3.7l-2.3-1.3l-3.5-1.1l-7.1,0.2l-0.9,0.4l-1.8,0.3l-2.9,1.1
		l-4.2,3.4l-1,0.2l-0.5-0.4l0-0.9l0.2-1.4l2.2-2.6l1.4-0.9l1.2-0.9l4.3-1.5l-1.6-1.1l-0.9,0l-0.2,0.2l-1.9,0.2l-2.9,1l-4,2.6
		l-2.3,2.3l-1,1.5l-1,2.2l-0.4,1.7l-0.1,3.3l1.2,4.3l1.9,3.8l3.6,3.6l1.7,0.8l1.6,0.8l2.8,0.6l4.3-0.1l5.1-1.2l2-0.7l2.7-1.5
		l4.6-3.3l2.6-2.5l1.3-2.4L239.4,243.1z"/>
</g>
<g>
	<path d="M137.3,292l-0.4,0.5l-0.5,0.6l-3.3,1l-3,1.1l-0.9,0.5l-1.5,0.4l-0.9,0.5l-2.1,0.5l-1.6,0.5l-3.7,0.3l-2.4-1.9l-0.3-0.3
		l0.3-0.9l-1-2.2l-0.2-6.6l0.2-4.2l0-1.2l0.7-5.2l1.5-13.9l-0.7-5.6l-0.1-1.9l1.3-0.7l2,0.5l0.5,0.7l0.4,1.6l-0.3,1.7l0.1,3.5
		l-0.2,2.1l-0.3,2.4l-0.2,3l-0.6,0.9l0.1,2.7l-0.7,4.5l-0.1,4.3l-0.1,5l0.1,2.9l0.7,3l0.4,0.8l1.1,0.6l2.2-0.1l1.2-0.4l2.2-0.3
		l4.4-1.6l2.4-0.4l1.9,0.1l0.9,0.3L137.3,292z"/>
	<path d="M144.4,253.4l-0.1,0.7l-0.8,0.4l-3.9-0.5l-1.4-0.6l-1.1-1.5l0-1l0.6-1.3l0.9-0.5l2.1,0.1l1.4,1l1.1,1.9L144.4,253.4z
		 M147.7,293.4l-0.1,3.3l-1.6,0.1l-0.8-0.9l0-0.5l-0.6-0.5l0-0.8l-0.5-0.7l-0.2-5.8l-0.4-0.6l0.4-0.5l-0.4-6.9l-0.5-4.1l0-0.9
		l-0.5-1.6l0.1-1.4l1-1.1l1.7,0.3l0.9,0.7l0.3,0.3l0.2,5l0.4,0.5l-0.4,0.9l0.3,7.7l0.4,5.1L147.7,293.4z"/>
	<path d="M166.4,264l-0.3,1.2l-0.2,0.5l-1.1,0.6l-1.8-0.5l-0.7-0.5l-1.6,0.4l-2,1l-1.2,0.9l-1.6,1.4l-1.7,2.5l-0.8,2l0.5,4.5l2.6,5
		l3.1,4.2l2.5,4.7l0.1,3.1l-1.6,2.1l-2.6,1.2l-3.2-0.1l-0.9-0.5l-0.2-0.6l0-0.7l0.5-0.5l2.6-0.5l1.1-0.5l0.9-1.2l-0.1-2.2l-0.9-1
		l-0.4-1.1L156,287l-1.8-2.1l-2.3-3.6l-0.8-1.7l-0.7-1.3l-0.3-1.8l-0.4-2.4l-0.2-0.1l-0.4,0l0.3-1.9l0.8-1.6l0.2,0.1l3.5-3.8l0-0.4
		l1.8-1.4l1.9-1.6l3.2-1.7l1.6-0.5l2,0.6L166.4,264z"/>
	<path d="M191,294.1l-0.2,1.3l-0.3,0.9l-2.8,2.7l-3.9,1.7l-3.2-0.1l-2-0.7l-2.7-2.5l-2.4-3.7l-0.7-1.6l-0.5-0.9l-0.4-1.6l-0.5-1.5
		l-0.7-2.5l-0.3-0.6l-0.3-2.7l-0.3-0.4l-0.1-2.2l-0.7-1.2l-0.5-9.5l0-5.2l0.3-3.7l-0.1-4.6l-0.1-2.9l-0.4-0.6l-0.1-2.7l1.6-1.6
		l2.1,0.1l0.5,0.3l0.5,0.9l0,2.4l-0.4,0.5l-0.1,2.1l-0.2,1.5l-0.3,3.9l-0.2,2.1l0,7l0.1,3.1l0.4,3l3.4-0.1l1.3-0.3l2.1-0.3l4.1-0.6
		l1.4,0l4.3,0.2l0.8,0.5l0,1.4l-0.5,0.3l-2.7,0.3l-2.2,0.7l-1.6,0.1l-3.5,0.9l-2.8,0.6l-1.1,0.5l-2,0.5l-0.5,0.5l0.4,4.4l0.5,1.1
		l0.5,1.9l1.7,4.3l2.4,4.1l2.3,2.2l1.9,0.4l4.3-1.5l2-1.6l0.4-1.2l1.1,0l0.5,0.3L191,294.1z"/>
</g>
</svg>
